<svg width="24" height="25" viewBox="0 0 24 25" fill="none" xmlns="http://www.w3.org/2000/svg">
<rect width="24" height="25" fill="#EBEBEB"/>
<g id="User Account" clip-path="url(#clip0_0_1)">
<rect width="1920" height="1127" transform="translate(-663 -130)" fill="#F6F9FF"/>
<g id="Group 36739">
<g id="&#240;&#159;&#166;&#134; emoji &#34;waving hand&#34;">
<path id="Vector" d="M11.444 22.4686C10.5866 21.7805 2.62422 14.0374 2.53522 13.9528C2.18356 13.6011 1.96214 13.2364 1.90136 12.9021C1.83841 12.5548 1.94478 12.2509 2.22698 11.9687C2.48964 11.706 2.81091 11.5671 3.15606 11.5671C3.57719 11.5671 4.00917 11.7668 4.36951 12.1293L7.97948 15.5982C8.04243 15.659 8.12492 15.6894 8.20524 15.6894C8.2899 15.6894 8.37239 15.6568 8.43534 15.5938C8.56124 15.4679 8.56124 15.2639 8.43751 15.138L2.67415 9.18578C2.09673 8.60836 1.82539 7.72486 2.51134 7.0389C2.77401 6.77624 3.09528 6.63731 3.44043 6.63731C3.86156 6.63731 4.29354 6.83702 4.65388 7.19953L10.5497 12.9477C10.6126 13.0085 10.6951 13.041 10.7776 13.041C10.8601 13.041 10.9447 13.0085 11.0077 12.9455C11.1336 12.8196 11.1358 12.6156 11.0099 12.4875L3.92885 5.22849C3.60106 4.9007 3.40353 4.5078 3.36879 4.12575C3.33623 3.73718 3.47299 3.37683 3.76604 3.08378C4.0287 2.82112 4.34998 2.68219 4.69513 2.68219C5.11625 2.68219 5.54823 2.8819 5.90858 3.24225L13.1307 10.2842C13.1936 10.345 13.2761 10.3775 13.3586 10.3775C13.4411 10.3775 13.5258 10.345 13.5887 10.282C13.7146 10.1561 13.7168 9.95205 13.5909 9.82398L8.34634 4.43399C8.01638 4.10404 7.81884 3.7133 7.78628 3.33125C7.75372 2.94268 7.89048 2.58234 8.18353 2.28929C8.44619 2.02662 8.76746 1.8877 9.11261 1.8877C9.53374 1.8877 9.96572 2.0874 10.3261 2.44992C12.2494 4.33848 17.2703 9.27695 17.4396 9.45929C18.0843 9.9043 18.2146 9.23136 18.2472 8.79504C18.2841 8.28708 17.7023 6.51358 18.0409 4.91807C18.6097 2.79724 20.2486 3.14456 20.2855 3.16193C21.1842 3.58306 21.0127 4.21258 20.6936 5.47813L20.661 5.72776C20.3267 7.38188 22.6234 12.2834 22.7927 12.6503C23.6936 14.6214 24.7312 18.6177 21.2949 22.054C17.5286 25.8203 12.8659 23.8905 11.444 22.4686Z" fill="url(#paint0_radial_0_1)"/>
<path id="Vector_2" d="M16.2761 24.5824C13.9664 24.5824 12.0019 23.4775 11.2269 22.7112C10.5301 22.1425 6.13217 17.8965 2.55042 14.4211C2.40498 14.28 2.32032 14.1997 2.31164 14.1888C1.90571 13.7829 1.6539 13.3596 1.58227 12.9602C1.49978 12.5065 1.64088 12.0962 1.99688 11.738C2.32249 11.4124 2.72191 11.2409 3.15606 11.2409C3.66619 11.2409 4.17849 11.4754 4.59962 11.8987L8.20524 15.3632L2.43971 9.41098C1.77546 8.74673 1.44117 7.64615 2.28125 6.80824C2.60686 6.48263 3.00628 6.31114 3.44043 6.31114C3.95056 6.31114 4.46286 6.54558 4.88399 6.96888L10.7754 12.7127L3.69658 5.45586C3.31887 5.07815 3.0866 4.61578 3.04536 4.15558C3.00411 3.66499 3.17343 3.21564 3.53595 2.85312C3.86156 2.52751 4.26098 2.35602 4.69513 2.35602C5.20309 2.35602 5.71539 2.58829 6.13868 3.01159L13.3586 10.0514L8.11407 4.66136C7.73419 4.28148 7.50192 3.81911 7.46284 3.35891C7.4216 2.87049 7.59092 2.42114 7.95344 2.05863C8.27905 1.73301 8.67847 1.56152 9.11262 1.56152C9.62275 1.56152 10.135 1.79597 10.5562 2.21926L12.1213 3.75399C14.9107 6.48914 17.2421 8.77929 17.4917 9.03544C17.6133 9.13312 17.7718 9.17002 17.8391 9.13746C17.8825 9.11575 17.9302 9.0159 17.9215 8.80534C17.9085 8.43631 17.8564 7.97828 17.8022 7.4942C17.6936 6.5217 17.5807 5.51447 17.7218 4.85022C18.0301 3.69755 18.6357 3.20913 19.0872 2.99856C19.7081 2.71202 20.3094 2.81188 20.4244 2.86615C21.5532 3.39581 21.3296 4.28148 21.0214 5.51013L21.0149 5.54052L20.9801 5.7945C20.7544 6.90593 21.9136 9.97754 23.0728 12.4804L23.0901 12.5152C23.8651 14.2083 25.2609 18.552 21.5272 22.2857C19.8101 23.9985 17.9519 24.5824 16.2761 24.5824ZM3.15606 11.8922C2.89992 11.8922 2.65679 11.9985 2.45708 12.1982C2.25086 12.4045 2.17922 12.6042 2.22264 12.8429C2.2704 13.1056 2.46359 13.4182 2.76533 13.7221C2.7675 13.7243 2.85433 13.8089 3.00411 13.9522C8.08802 18.8863 11.1575 21.819 11.6481 22.2141L11.6741 22.238C12.8724 23.4362 17.3246 25.5636 21.0648 21.8234C24.5098 18.3784 23.2139 14.356 22.4953 12.7843L22.4801 12.7518C21.7334 11.1411 20.0359 7.23371 20.3376 5.67511L20.3875 5.34949C20.7218 4.02099 20.7414 3.74313 20.1748 3.46962C20.0076 3.43923 18.8094 3.29379 18.3514 5.00217C18.2363 5.54703 18.347 6.54341 18.4447 7.42256C18.5011 7.91967 18.5532 8.39072 18.5663 8.78363C18.588 9.40229 18.2949 9.63891 18.1169 9.72574C17.7544 9.90157 17.3224 9.75179 17.0532 9.52603L17.025 9.49998C16.8926 9.35671 13.7428 6.26772 11.6589 4.22287L10.0916 2.6838C9.55762 2.14763 8.86949 2.05863 8.40712 2.521C8.18137 2.74676 8.07934 3.01159 8.10322 3.30464C8.12927 3.61072 8.29424 3.92982 8.56993 4.2055L13.8253 9.59549C14.0728 9.8473 14.0728 10.2597 13.821 10.5116C13.58 10.7525 13.1546 10.7568 12.9071 10.5181L5.68065 3.47396C5.14665 2.93995 4.45635 2.85095 3.99615 3.31332C3.77039 3.53908 3.66836 3.80391 3.69224 4.09697C3.72046 4.40304 3.88544 4.72432 4.15895 4.99566L11.2421 12.259C11.4918 12.5108 11.4896 12.9233 11.2378 13.1751C10.9968 13.416 10.5714 13.4204 10.3239 13.1816L4.42596 7.43125C3.89195 6.8929 3.20165 6.80607 2.74145 7.26844C2.17922 7.83067 2.47879 8.52748 2.90426 8.95512L8.67196 14.9117C8.91942 15.1635 8.91725 15.5738 8.66544 15.8234C8.42232 16.0665 8.00119 16.0687 7.75373 15.8321L4.14376 12.3632C3.83985 12.0571 3.49036 11.8922 3.15606 11.8922Z" fill="#EDA600"/>
<path id="Vector_3" d="M16.9209 9.24902C15.7291 11.6824 15.8832 15.0884 17.6719 17.8213C17.8738 18.1904 18.219 18.0102 18.0431 17.6303C15.8832 13.0088 18.1473 9.67883 18.1473 9.67883L16.9209 9.24902Z" fill="#EDA600"/>
<path id="Vector_4" d="M12.2342 0.122733C12.8898 -0.0487565 13.5887 -0.0335611 14.2682 0.124904C14.9433 0.287711 15.6184 0.63069 16.1198 1.19075C16.6104 1.74646 16.9122 2.42156 17.0142 3.12923C17.1097 3.83038 17.0207 4.55325 16.6886 5.15237C16.6495 4.47944 16.5323 3.86078 16.3347 3.28987C16.2327 3.0055 16.1133 2.73415 15.9679 2.478C15.8246 2.22403 15.6553 1.97222 15.4751 1.766C15.1083 1.3427 14.6112 1.01274 14.0533 0.756594C13.4932 0.491762 12.8832 0.296394 12.2342 0.122733Z" fill="#B0BEC5"/>
<path id="Vector_5" d="M12.4143 2.18065C12.7768 1.95055 13.2305 1.90279 13.6582 1.97877C14.0901 2.05474 14.5026 2.26965 14.8282 2.56704C15.1516 2.86878 15.3817 3.24866 15.525 3.64374C15.5945 3.84128 15.6292 4.04967 15.6618 4.25155C15.6726 4.45994 15.6726 4.66833 15.6401 4.87673C15.4903 4.71826 15.373 4.5598 15.2623 4.40567C15.1343 4.26023 15.0344 4.10611 14.9194 3.96501C14.6936 3.68498 14.4744 3.431 14.2377 3.20524C13.9946 2.986 13.7385 2.7928 13.4411 2.62565C13.1459 2.45416 12.8137 2.31089 12.4143 2.18065Z" fill="#90A4AE"/>
<path id="Vector_6" d="M0.00414897 15.9346C0.310226 16.5337 0.629327 17.0894 1.00053 17.58C1.36955 18.0706 1.79285 18.4874 2.28561 18.7587C2.5244 18.8911 2.80877 19.0062 3.08662 19.093C3.36665 19.182 3.65753 19.2428 3.9571 19.284C4.55622 19.3579 5.18574 19.3448 5.85217 19.2428C5.33553 19.6922 4.64523 19.9309 3.9419 19.983C3.22989 20.0308 2.50703 19.8767 1.86015 19.512C1.20892 19.1408 0.731352 18.5503 0.431788 17.923C0.132224 17.2913 -0.0284124 16.6118 0.00414897 15.9346Z" fill="#B0BEC5"/>
<path id="Vector_7" d="M2.05555 15.6807C2.26611 16.0454 2.47451 16.3384 2.70243 16.5946C2.92819 16.8507 3.17132 17.0613 3.43615 17.2523C3.70532 17.4368 4.00055 17.5996 4.32182 17.7624C4.48245 17.8449 4.65394 17.91 4.82326 18.0055C4.99909 18.0815 5.1771 18.1618 5.36378 18.2769C5.16624 18.3507 4.96436 18.3941 4.75814 18.4267C4.55409 18.4354 4.34353 18.4462 4.13513 18.418C3.71835 18.3615 3.30156 18.2161 2.93688 17.9621C2.5787 17.7038 2.28131 17.3456 2.1185 16.9397C1.95352 16.5359 1.90577 16.0844 2.05555 15.6807Z" fill="#90A4AE"/>
</g>
</g>
</g>
<defs>
<radialGradient id="paint0_radial_0_1" cx="0" cy="0" r="1" gradientUnits="userSpaceOnUse" gradientTransform="translate(8.08285 7.39488) rotate(-45) scale(19.7555)">
<stop offset="0.3533" stop-color="#FFCA28"/>
<stop offset="0.8723" stop-color="#FFB300"/>
</radialGradient>
<clipPath id="clip0_0_1">
<rect width="1920" height="1127" fill="white" transform="translate(-663 -130)"/>
</clipPath>
</defs>
</svg>
